<?xml version="1.0" encoding="utf-8"?>
<!-- Generator: Adobe Illustrator 22.0.0, SVG Export Plug-In . SVG Version: 6.00 Build 0)  -->
<svg version="1.1" id="Слой_1" xmlns="http://www.w3.org/2000/svg" xmlns:xlink="http://www.w3.org/1999/xlink" x="0px" y="0px"
	 viewBox="0 0 45 45" style="enable-background:new 0 0 45 45;" xml:space="preserve">
<style type="text/css">
	.st0{fill:none;stroke:#0C1D2E;stroke-miterlimit:10;}
	.st1{fill:none;stroke:#0C1D2E;stroke-width:0.5;stroke-miterlimit:10;stroke-dasharray:1.8494,2.7177;}
	.st2{fill:none;stroke:#0C1D2E;stroke-width:0.5;stroke-miterlimit:10;}
	.st3{fill:none;stroke:#0C1D2E;stroke-width:0.25;stroke-miterlimit:10;}
</style>
<path class="st0" d="M37.4,24.7c-0.1,0-0.1,0-0.1,0h-5.3c-0.7,0-1.3,0.6-1.3,1.3v3.2c0,0.7,0.6,1.3,1.3,1.3h5.3"/>
<path class="st0" d="M37.2,24.6v-6.9c0-1.1-0.9-2-2-2H9.6c-1.1,0-2,0.9-2,2v19.8c0,1.1,0.9,2,2,2h25.6c1.1,0,2-0.9,2-2v-7.1
	c0.7-0.1,1.2-0.6,1.2-1.3v-3.2C38.4,25.2,37.9,24.7,37.2,24.6z"/>
<path class="st1" d="M35.1,35.1c0,1.4-1.1,2.5-2.4,2.5H12.6"/>
<path class="st1" d="M12.6,17.5h20.1c1.3,0,2.4,1.1,2.4,2.5"/>
<line class="st2" x1="35.1" y1="33.4" x2="35.1" y2="31.4"/>
<line class="st2" x1="35.1" y1="21.9" x2="35.1" y2="23.5"/>
<line class="st2" x1="11.1" y1="17.5" x2="9.9" y2="17.5"/>
<line class="st2" x1="11.1" y1="37.7" x2="9.9" y2="37.7"/>
<line class="st0" x1="32.1" y1="27.5" x2="34" y2="27.5"/>
<line class="st0" x1="33.6" y1="26.2" x2="33.6" y2="29"/>
<polygon class="st0" points="27,5.8 12.2,15.8 32.9,15.6 "/>
<polyline class="st0" points="29.6,15.6 25.7,9.3 16.1,15.8 "/>
<path class="st3" d="M32.4,19.3"/>
<path class="st0" d="M22.4,19.6"/>
<path class="st0" d="M22.4,19.6"/>
<path class="st0" d="M9.9,20.1"/>
<path class="st3" d="M10.4,18.2"/>
<path class="st3" d="M19.4,18.2"/>
<path class="st0" d="M30.4,11.4h2.4c1.5,0,2.7,1.2,2.7,2.7v1.4c0,0.2,0,0.4-0.1,0.5"/>
<path class="st0" d="M29.9,11.4"/>
<path class="st0" d="M23,11.4"/>
<path class="st0" d="M7.8,17l-0.2-2.9c0.1-1.6,1.3-2.7,2.8-2.7h8.3"/>
<path class="st3" d="M10.4,18.2"/>
</svg>
